<?xml version="1.0" standalone="no"?>
<!DOCTYPE svg PUBLIC "-//W3C//DTD SVG 20010904//EN"
 "http://www.w3.org/TR/2001/REC-SVG-20010904/DTD/svg10.dtd">
<svg version="1.0" xmlns="http://www.w3.org/2000/svg"
 width="512.000000pt" height="512.000000pt" viewBox="0 0 512.000000 512.000000"
 preserveAspectRatio="xMidYMid meet">

<g transform="translate(0.000000,512.000000) scale(0.100000,-0.100000)"
fill="#000000" stroke="none">
<path d="M1700 2574 c-47 -25 -88 -49 -93 -53 -4 -4 9 -34 29 -67 170 -282
470 -482 790 -525 411 -55 836 157 1059 526 42 70 47 61 -78 126 -48 25 -82
38 -85 31 -11 -34 -93 -146 -151 -206 -175 -182 -368 -268 -606 -269 -129 -1
-208 14 -320 60 -148 61 -339 227 -415 361 -19 34 -37 61 -40 62 -3 0 -43 -21
-90 -46z"/>
<path d="M666 923 c-3 -4 -6 -37 -6 -74 0 -178 111 -339 273 -396 49 -17 136
-18 1627 -18 1491 0 1578 1 1627 18 162 57 273 218 273 396 0 37 -3 70 -6 74
-3 3 -19 -21 -36 -53 -34 -69 -96 -136 -159 -173 -102 -60 -21 -57 -1699 -57
-1678 0 -1597 -3 -1699 57 -63 37 -125 104 -159 173 -17 32 -33 56 -36 53z"/>
</g>
</svg>
